<?xml version="1.0" encoding="UTF-8" standalone="no"?>
<svg
   xmlns:dc="http://purl.org/dc/elements/1.1/"
   xmlns:cc="http://creativecommons.org/ns#"
   xmlns:rdf="http://www.w3.org/1999/02/22-rdf-syntax-ns#"
   xmlns:svg="http://www.w3.org/2000/svg"
   xmlns="http://www.w3.org/2000/svg"
   xmlns:sodipodi="http://sodipodi.sourceforge.net/DTD/sodipodi-0.dtd"
   xmlns:inkscape="http://www.inkscape.org/namespaces/inkscape"
   version="1.0"
   width="72.129105"
   height="47.828583"
   viewBox="0 0 57.703284 38.262866"
   preserveAspectRatio="xMidYMid meet"
   id="svg2"
   inkscape:version="0.48.4 r9939"
   sodipodi:docname="The_Library_Logo.svg">
  <defs
     id="defs28" />
  <sodipodi:namedview
     pagecolor="#ffffff"
     bordercolor="#666666"
     borderopacity="1"
     objecttolerance="10"
     gridtolerance="10"
     guidetolerance="10"
     inkscape:pageopacity="0"
     inkscape:pageshadow="2"
     inkscape:window-width="1920"
     inkscape:window-height="1018"
     id="namedview26"
     showgrid="false"
     fit-margin-top="0.5"
     fit-margin-left="0.5"
     fit-margin-bottom="0.5"
     fit-margin-right="0.5"
     inkscape:zoom="9.664"
     inkscape:cx="79.4238"
     inkscape:cy="22.558164"
     inkscape:window-x="-8"
     inkscape:window-y="-8"
     inkscape:window-maximized="1"
     inkscape:current-layer="svg2" />
  <metadata
     id="metadata4">
Created by potrace 1.11, written by Peter Selinger 2001-2013
<rdf:RDF>
  <cc:Work
     rdf:about="">
    <dc:format>image/svg+xml</dc:format>
    <dc:type
       rdf:resource="http://purl.org/dc/dcmitype/StillImage" />
  </cc:Work>
</rdf:RDF>
</metadata>
  <g
     transform="matrix(0.02703244,0,0,-0.02985089,-12.440409,115.62444)"
     id="g6"
     style="fill:#000000;stroke:none">
    <path
       d="m 784,3848 c -4,-6 -2,-14 5,-16 26,-9 219,-141 281,-192 150,-125 297,-293 404,-464 l 54,-85 47,77 c 81,131 154,222 280,347 124,125 218,201 340,275 84,51 79,46 70,60 -8,13 -81,-26 -210,-114 -163,-111 -408,-370 -497,-526 -13,-22 -26,-40 -29,-40 -3,0 -31,38 -62,84 -115,173 -261,328 -421,448 -68,51 -238,158 -251,158 -2,0 -7,-5 -11,-12 z"
       id="path8"
       inkscape:connector-curvature="0" />
    <path
       d="m 525,3710 -50,-50 528,-528 527,-527 525,525 525,525 -53,53 -52,52 -475,-475 -475,-475 -475,475 -475,475 -50,-50 z"
       id="path10"
       inkscape:connector-curvature="0" />
    <path
       d="m 706,3745 c -3,-8 -2,-15 2,-15 15,0 226,-142 301,-203 170,-137 341,-332 464,-530 l 55,-87 50,82 c 162,268 447,552 705,703 37,21 67,42 67,46 0,24 -30,14 -112,-34 -254,-150 -491,-378 -653,-629 -28,-42 -53,-77 -56,-77 -3,-1 -31,36 -61,82 -171,257 -397,473 -650,622 -50,30 -95,55 -99,55 -4,0 -9,-7 -13,-15 z"
       id="path12"
       inkscape:connector-curvature="0" />
  </g>
</svg>
