<?xml version="1.0" encoding="UTF-8" standalone="no"?>
<svg
   xmlns:dc="http://purl.org/dc/elements/1.1/"
   xmlns:cc="http://creativecommons.org/ns#"
   xmlns:rdf="http://www.w3.org/1999/02/22-rdf-syntax-ns#"
   xmlns:svg="http://www.w3.org/2000/svg"
   xmlns="http://www.w3.org/2000/svg"
   xmlns:sodipodi="http://sodipodi.sourceforge.net/DTD/sodipodi-0.dtd"
   xmlns:inkscape="http://www.inkscape.org/namespaces/inkscape"
   version="1.0"
   width="10.291487"
   height="8.2382746"
   viewBox="0 0 8.2331892 6.5906198"
   preserveAspectRatio="xMidYMid meet"
   id="svg2"
   inkscape:version="0.48.4 r9939"
   sodipodi:docname="stock-vector-open-book-symbol-3917050.svg">
  <defs
     id="defs30" />
  <sodipodi:namedview
     pagecolor="#ffffff"
     bordercolor="#666666"
     borderopacity="1"
     objecttolerance="10"
     gridtolerance="10"
     guidetolerance="10"
     inkscape:pageopacity="0"
     inkscape:pageshadow="2"
     inkscape:window-width="1920"
     inkscape:window-height="1018"
     id="namedview28"
     showgrid="false"
     fit-margin-top="0.2"
     fit-margin-left="0.2"
     fit-margin-right="0.2"
     fit-margin-bottom="0.2"
     inkscape:zoom="12.854468"
     inkscape:cx="48.787774"
     inkscape:cy="-17.455096"
     inkscape:window-x="-8"
     inkscape:window-y="-8"
     inkscape:window-maximized="1"
     inkscape:current-layer="g6" />
  <metadata
     id="metadata4">
Created by potrace 1.11, written by Peter Selinger 2001-2013
<rdf:RDF>
  <cc:Work
     rdf:about="">
    <dc:format>image/svg+xml</dc:format>
    <dc:type
       rdf:resource="http://purl.org/dc/dcmitype/StillImage" />
  </cc:Work>
</rdf:RDF>
</metadata>
  <g
     transform="matrix(0.1,0,0,-0.1,-22.199537,464.26774)"
     id="g6"
     style="fill:#000000;stroke:none">
    <path
       style="fill:#000000;stroke:none"
       d="m 251.17178,4640.7591 c -2.83718,-0.6401 -5.70814,-1.7696 -12.362,-4.9323 -8.03868,-3.8781 -10.74075,-4.5558 -13.37528,-3.5016 -0.77684,0.3012 -1.21593,0.3389 -1.48614,0.038 -0.33776,-0.3766 -0.50664,-51.7706 -0.16888,-52.4106 0.10133,-0.1883 0.7093,-0.6025 1.35104,-0.9413 1.08083,-0.5648 4.4922,-0.6401 38.03172,-0.6401 33.53952,0 36.95089,0.075 38.03172,0.6401 0.64174,0.3388 1.24971,0.753 1.35104,0.9413 0.33775,0.64 0.16888,52.034 -0.20266,52.4482 -0.23643,0.2636 -0.67552,0.2259 -1.45237,-0.075 -2.63452,-1.0542 -5.30282,-0.3765 -13.44282,3.5392 -6.85652,3.2381 -10.13279,4.5182 -13.13885,5.0077 -2.70207,0.4518 -5.26905,0.1506 -7.0254,-0.866 -0.9795,-0.5648 -3.54647,-3.4639 -3.88423,-4.4052 -0.16888,-0.4142 -0.27021,-0.3765 -0.60797,0.1883 -0.94572,1.6942 -2.9385,3.8027 -4.18821,4.4052 -1.92523,0.9412 -4.69486,1.1295 -7.43071,0.5647 z m 6.4512,-2.8238 c 0.77685,-0.3765 1.79013,-1.2802 2.26299,-1.9955 1.99278,-2.8992 1.92523,-2.0332 1.92523,-27.109 l 0,-23.0426 -1.1146,1.2049 c -0.64175,0.6777 -1.92523,1.5436 -2.87096,1.9578 -3.61403,1.5437 -7.70092,0.6778 -15.77337,-3.238 -9.45726,-4.6311 -13.10507,-5.723 -15.43561,-4.7064 l -0.94572,0.4142 0,23.9838 0,24.0216 2.29676,0.038 c 2.73585,0.038 5.06639,0.866 12.26067,4.2923 4.6273,2.2214 9.28839,4.1416 11.28117,4.6311 1.75634,0.4518 4.79618,0.2259 6.11344,-0.4518 z m 19.25229,-0.2636 c 1.65503,-0.5271 5.80947,-2.2591 9.25461,-3.9157 8.07245,-3.8028 9.49104,-4.2923 12.2269,-4.3299 l 2.29676,0 0,-24.0216 0,-23.9838 -0.91195,-0.4142 c -2.36432,-1.0166 -5.94457,0.075 -15.53693,4.7064 -5.50549,2.6733 -9.42349,3.9911 -11.92291,3.9911 -2.36432,0 -4.93129,-1.0166 -6.45121,-2.5227 l -1.31726,-1.3178 0,23.1179 0,23.1179 0.84439,1.8826 c 1.04706,2.3344 2.06034,3.4262 3.78291,4.104 1.95901,0.7906 4.42465,0.6777 7.73469,-0.4142 z"
       id="path10"
       inkscape:connector-curvature="0" />
    <path
       style="fill:#000000;stroke:none"
       d="m 248.97634,4624.9456 c -0.8444,-0.2636 -3.58025,-1.4684 -6.07967,-2.7109 -4.18822,-2.0332 -4.76241,-2.2215 -7.0254,-2.2215 -1.6888,0 -2.43187,-0.1506 -2.43187,-0.4518 0,-0.6777 1.41859,-0.9789 3.47893,-0.7906 1.14838,0.1129 3.37759,0.9412 6.48498,2.4473 5.67436,2.7109 7.76847,3.3133 9.72747,2.7109 1.24971,-0.3765 3.27627,-2.2214 3.27627,-3.0121 0,-0.1883 0.23643,-0.3389 0.50664,-0.3389 0.67552,0 0.64174,0.6025 -0.13511,2.0332 -1.35103,2.372 -4.6273,3.3886 -7.80224,2.3344 z"
       id="path12"
       inkscape:connector-curvature="0" />
    <path
       style="fill:#000000;stroke:none"
       d="m 247.79418,4618.1684 c -1.28349,-0.4895 -3.5127,-1.4685 -4.93129,-2.1839 -4.08689,-2.1084 -5.91079,-2.6732 -7.76847,-2.4096 -1.75634,0.2635 -2.19543,-0.1883 -0.91195,-0.9413 1.41859,-0.8283 4.25578,-0.1506 9.22084,2.2591 7.80224,3.7651 9.72747,3.9157 12.22689,0.9036 1.14838,-1.3554 1.48614,-1.5813 1.65502,-1.1295 0.30399,0.866 -1.04705,2.7862 -2.56697,3.6521 -1.72257,0.979 -3.98556,0.9413 -6.92407,-0.1505 z"
       id="path14"
       inkscape:connector-curvature="0" />
    <path
       style="fill:#000000;stroke:none"
       d="m 249.14522,4612.4077 c -0.9795,-0.2259 -2.43187,-0.866 -4.72863,-2.0332 -5.97834,-3.0121 -8.57909,-3.8027 -9.89636,-3.0121 -0.94572,0.5648 -1.41859,-0.2635 -0.54041,-0.9789 1.18216,-0.979 4.18822,-0.3389 9.05195,1.9955 7.8698,3.7651 10.03146,3.9534 12.46333,1.2425 0.74307,-0.7907 1.45236,-1.4684 1.62124,-1.4684 1.01328,0 -0.84439,3.0497 -2.39809,3.9534 -0.91195,0.5271 -3.98556,0.7153 -5.57303,0.3012 z"
       id="path16"
       inkscape:connector-curvature="0" />
    <path
       style="fill:#000000;stroke:none"
       d="m 249.65186,4606.2329 c -0.8444,-0.2259 -1.8239,-0.5271 -2.19544,-0.7154 -0.37153,-0.1882 -1.58747,-0.753 -2.70207,-1.2425 -1.11461,-0.5271 -3.14117,-1.4684 -4.52598,-2.1461 -2.26299,-1.0919 -4.08689,-1.4308 -5.91079,-1.0542 -1.18216,0.2259 -0.94573,-0.7531 0.30398,-1.2049 1.65502,-0.6024 3.78291,-0.038 8.41021,2.2591 4.86374,2.372 6.51876,2.9744 8.34266,3.0498 1.95901,0.075 3.00606,-0.4519 4.28955,-2.0709 1.75635,-2.2214 2.56697,-1.3931 0.87817,0.9037 -1.65502,2.1837 -3.91801,2.8991 -6.89029,2.2214 z"
       id="path18"
       inkscape:connector-curvature="0" />
    <path
       style="fill:#000000;stroke:none"
       d="m 272.78838,4625.2091 c -0.94572,-0.2635 -2.76963,-1.8449 -3.44514,-2.9744 -0.40531,-0.7154 -0.43909,-1.0542 -0.13511,-1.3931 0.27021,-0.3012 0.50664,-0.2259 0.91195,0.4141 2.26299,3.6146 4.93129,3.7652 11.11229,0.7531 1.6888,-0.8283 3.98556,-1.8826 5.16772,-2.4097 2.8034,-1.2049 6.48498,-1.2425 6.48498,0 0,0.2635 -0.8444,0.4141 -2.43187,0.4141 -2.26298,0 -2.8034,0.1883 -6.82273,2.1838 -5.87702,2.9368 -8.44399,3.6522 -10.84209,3.0121 z"
       id="path20"
       inkscape:connector-curvature="0" />
    <path
       style="fill:#000000;stroke:none"
       d="m 272.11286,4618.5449 c -0.9795,-0.4895 -3.20871,-2.9368 -3.20871,-3.5769 0,-0.9037 0.60797,-0.6025 1.89145,0.8659 2.49942,2.9369 4.72864,2.7486 12.53088,-1.0918 4.42465,-2.1838 6.3161,-2.7109 8.34266,-2.2968 2.12788,0.4519 1.45236,1.1672 -1.04706,1.1672 -1.99278,0.038 -2.8034,0.2636 -6.01211,1.8449 -7.29561,3.5393 -10.09901,4.2546 -12.49711,3.0875 z"
       id="path22"
       inkscape:connector-curvature="0" />
    <path
       style="fill:#000000;stroke:none"
       d="m 271.60623,4611.8806 c -1.31727,-0.866 -2.6683,-2.5227 -2.70208,-3.238 0,-0.866 0.64174,-0.5272 1.99278,0.9789 2.22921,2.485 4.32332,2.5226 9.32216,0.2259 7.16051,-3.2756 8.81553,-3.9157 10.30167,-3.9534 1.75634,0 2.53319,0.4518 2.26299,1.2425 -0.16888,0.4895 -0.37154,0.5271 -1.21594,0.1506 -1.35104,-0.5647 -3.07361,-0.038 -8.07245,2.4097 -2.09411,1.0542 -4.52598,2.1461 -5.40415,2.4097 -2.36432,0.8283 -5.06639,0.7153 -6.48498,-0.2259 z"
       id="path24"
       inkscape:connector-curvature="0" />
    <path
       style="fill:#000000;stroke:none"
       d="m 272.07909,4605.894 c -1.85768,-0.9036 -4.08689,-4.1416 -2.83718,-4.1416 0.16888,0 0.9795,0.753 1.79012,1.6943 1.51992,1.732 1.89146,1.8826 4.62731,1.6943 1.1146,-0.075 4.59353,-1.4308 7.73469,-3.0498 3.41137,-1.7696 5.03262,-2.3343 6.85652,-2.372 1.89145,-0.038 2.90473,0.4518 2.49942,1.2049 -0.1351,0.2635 -0.57419,0.2635 -1.18216,0.075 -1.48614,-0.4518 -3.68158,0.1507 -7.8698,2.2968 -3.85046,1.9578 -7.83601,3.3509 -9.38971,3.3133 -0.47286,0 -1.48614,-0.3388 -2.22921,-0.7154 z"
       id="path26"
       inkscape:connector-curvature="0" />
  </g>
</svg>
